<svg width="18" height="18" viewBox="0 0 18 18" fill="none" xmlns="http://www.w3.org/2000/svg">
<path d="M9.0149 15.3974C7.2674 15.3974 5.5199 15.1199 3.8624 14.5649C3.2324 14.3474 2.7524 13.9049 2.5424 13.3274C2.3249 12.7499 2.3999 12.1124 2.7449 11.5424L3.6074 10.1099C3.7874 9.80994 3.9524 9.20994 3.9524 8.85744V6.68994C3.9524 3.89994 6.2249 1.62744 9.0149 1.62744C11.8049 1.62744 14.0774 3.89994 14.0774 6.68994V8.85744C14.0774 9.20244 14.2424 9.80994 14.4224 10.1174L15.2774 11.5424C15.5999 12.0824 15.6599 12.7349 15.4424 13.3274C15.2249 13.9199 14.7524 14.3699 14.1599 14.5649C12.5099 15.1199 10.7624 15.3974 9.0149 15.3974ZM9.0149 2.75244C6.8474 2.75244 5.0774 4.51494 5.0774 6.68994V8.85744C5.0774 9.40494 4.8524 10.2149 4.5749 10.6874L3.7124 12.1199C3.5474 12.3974 3.5024 12.6899 3.5999 12.9374C3.6899 13.1924 3.9149 13.3874 4.2224 13.4924C7.3574 14.5424 10.6799 14.5424 13.8149 13.4924C14.0849 13.4024 14.2949 13.1999 14.3924 12.9299C14.4899 12.6599 14.4674 12.3674 14.3174 12.1199L13.4549 10.6874C13.1699 10.1999 12.9524 9.39744 12.9524 8.84994V6.68994C12.9524 4.51494 11.1899 2.75244 9.0149 2.75244Z" fill="white"/>
<path d="M10.41 2.95501C10.3575 2.95501 10.305 2.94751 10.2525 2.93251C10.035 2.87251 9.82496 2.82751 9.62246 2.79751C8.98496 2.71501 8.36996 2.76001 7.79246 2.93251C7.58246 3.00001 7.35746 2.93251 7.21496 2.77501C7.07246 2.61751 7.02746 2.39251 7.10996 2.19001C7.41746 1.40251 8.16746 0.88501 9.02246 0.88501C9.87746 0.88501 10.6275 1.39501 10.935 2.19001C11.01 2.39251 10.9725 2.61751 10.83 2.77501C10.7175 2.89501 10.56 2.95501 10.41 2.95501Z" fill="white"/>
<path d="M9.01489 17.1075C8.27239 17.1075 7.55239 16.8075 7.02739 16.2825C6.50239 15.7575 6.20239 15.0375 6.20239 14.295H7.32739C7.32739 14.7375 7.50739 15.1725 7.82239 15.4875C8.13739 15.8025 8.57239 15.9825 9.01489 15.9825C9.94489 15.9825 10.7024 15.225 10.7024 14.295H11.8274C11.8274 15.8475 10.5674 17.1075 9.01489 17.1075Z" fill="white"/>
</svg>
