<svg width="20" height="20" viewBox="0 0 20 20" fill="none" xmlns="http://www.w3.org/2000/svg">
<path d="M13.3662 0.0635555C11.6871 0.0635555 10.0767 0.730591 8.88937 1.91792C7.70204 3.10525 7.035 4.71562 7.035 6.39476C7.0345 7.01708 7.12708 7.63597 7.30967 8.23089L0 15.54V19.761H4.221L11.5307 12.4519C12.4357 12.7296 13.3916 12.8008 14.3278 12.6603C15.264 12.5197 16.1568 12.171 16.9404 11.6398C17.7241 11.1085 18.3786 10.4083 18.8558 9.5907C19.3331 8.77307 19.6208 7.85882 19.698 6.91525C19.8401 5.41368 19.4272 3.91208 18.5374 2.69424C17.9478 1.87566 17.1711 1.20983 16.272 0.752232C15.3729 0.294634 14.3774 0.0585184 13.3686 0.0635555H13.3662ZM13.3662 11.3196C12.8895 11.3177 12.4155 11.2467 11.9592 11.1086L11.1502 10.8622L10.5522 11.4602L8.31459 13.6978L7.3229 12.7266L6.3312 13.7183L7.30246 14.6889L6.18395 15.8074L5.2127 14.8368L4.221 15.8285L5.19166 16.8021L3.6362 18.3546H1.407V16.1248L8.30137 9.20876L8.89939 8.61074L8.69564 7.9424C8.3418 6.82892 8.3872 5.62692 8.82402 4.5433C9.26085 3.45968 10.0618 2.56225 11.0889 2.00547C11.8285 1.61911 12.6541 1.42703 13.4883 1.44724C14.3224 1.46746 15.1378 1.69932 15.8578 2.12105C16.5778 2.54278 17.1788 3.14055 17.6044 3.85825C18.03 4.57594 18.2663 5.39002 18.291 6.22407C18.3398 7.21962 18.0713 8.20495 17.5241 9.03807C17.0792 9.73764 16.4648 10.3135 15.7379 10.7124C15.0111 11.1112 14.1953 11.3201 13.3662 11.3196Z" fill="white"/>
<path d="M15.4761 5.69118C15.4761 5.96946 15.3936 6.24149 15.239 6.47287C15.0844 6.70425 14.8646 6.88459 14.6075 6.99108C14.3505 7.09757 14.0675 7.12544 13.7946 7.07115C13.5217 7.01686 13.271 6.88285 13.0742 6.68608C12.8774 6.48931 12.7434 6.2386 12.6891 5.96567C12.6349 5.69274 12.6627 5.40984 12.7692 5.15274C12.8757 4.89565 13.056 4.67591 13.2874 4.5213C13.5188 4.3667 13.7908 4.28418 14.0691 4.28418C14.4423 4.28418 14.8001 4.43242 15.064 4.69628C15.3279 4.96014 15.4761 5.31802 15.4761 5.69118Z" fill="white"/>
</svg>
