<svg width="18" height="18" viewBox="0 0 18 18" fill="none" xmlns="http://www.w3.org/2000/svg">
<path d="M11.25 9.71252H6C5.6925 9.71252 5.4375 9.45752 5.4375 9.15002C5.4375 8.84252 5.6925 8.58752 6 8.58752H11.25C11.5575 8.58752 11.8125 8.84252 11.8125 9.15002C11.8125 9.45752 11.5575 9.71252 11.25 9.71252Z" fill="white"/>
<path d="M9.285 12.7125H6C5.6925 12.7125 5.4375 12.4575 5.4375 12.15C5.4375 11.8425 5.6925 11.5875 6 11.5875H9.285C9.5925 11.5875 9.8475 11.8425 9.8475 12.15C9.8475 12.4575 9.5925 12.7125 9.285 12.7125Z" fill="white"/>
<path d="M10.5 5.0625H7.5C6.78 5.0625 5.4375 5.0625 5.4375 3C5.4375 0.9375 6.78 0.9375 7.5 0.9375H10.5C11.22 0.9375 12.5625 0.9375 12.5625 3C12.5625 3.72 12.5625 5.0625 10.5 5.0625ZM7.5 2.0625C6.7575 2.0625 6.5625 2.0625 6.5625 3C6.5625 3.9375 6.7575 3.9375 7.5 3.9375H10.5C11.4375 3.9375 11.4375 3.7425 11.4375 3C11.4375 2.0625 11.2425 2.0625 10.5 2.0625H7.5Z" fill="white"/>
<path d="M11.25 17.0624H6.75C2.535 17.0624 1.6875 15.1274 1.6875 11.9999V7.49995C1.6875 4.07995 2.925 2.61745 5.97 2.45995C6.27 2.44495 6.5475 2.67745 6.5625 2.99245C6.5775 3.30745 6.3375 3.56245 6.03 3.57745C3.9 3.69745 2.8125 4.33495 2.8125 7.49995V11.9999C2.8125 14.7749 3.36 15.9374 6.75 15.9374H11.25C14.64 15.9374 15.1875 14.7749 15.1875 11.9999V7.49995C15.1875 4.33495 14.1 3.69745 11.97 3.57745C11.6625 3.56245 11.4225 3.29245 11.4375 2.98495C11.4525 2.67745 11.7225 2.43745 12.03 2.45245C15.075 2.61745 16.3125 4.07995 16.3125 7.49245V11.9924C16.3125 15.1274 15.465 17.0624 11.25 17.0624Z" fill="white"/>
</svg>
