<svg width="40" height="40" viewBox="0 0 40 40" fill="none" xmlns="http://www.w3.org/2000/svg">
<path d="M35.1332 14.3001V25.7C35.1332 27.5667 34.1332 29.3001 32.5165 30.2501L22.6165 35.9668C20.9999 36.9001 18.9999 36.9001 17.3665 35.9668L7.46652 30.2501C5.84985 29.3168 4.84985 27.5834 4.84985 25.7V14.3001C4.84985 12.4334 5.84985 10.7 7.46652 9.75003L17.3665 4.03337C18.9832 3.10004 20.9832 3.10004 22.6165 4.03337L32.5165 9.75003C34.1332 10.7 35.1332 12.4168 35.1332 14.3001Z" stroke="white" stroke-width="2.5" stroke-linecap="round" stroke-linejoin="round"/>
<path d="M19.9998 18.3334C22.1445 18.3334 23.8831 16.5947 23.8831 14.45C23.8831 12.3053 22.1445 10.5668 19.9998 10.5668C17.8551 10.5668 16.1165 12.3053 16.1165 14.45C16.1165 16.5947 17.8551 18.3334 19.9998 18.3334Z" stroke="white" stroke-width="2.5" stroke-linecap="round" stroke-linejoin="round"/>
<path d="M26.6666 27.7669C26.6666 24.7669 23.6833 22.3336 19.9999 22.3336C16.3166 22.3336 13.3333 24.7669 13.3333 27.7669" stroke="white" stroke-width="2.5" stroke-linecap="round" stroke-linejoin="round"/>
</svg>
