<svg width="18" height="18" viewBox="0 0 18 18" fill="none" xmlns="http://www.w3.org/2000/svg">
<path d="M13.5 8.0625C13.1925 8.0625 12.9375 7.8075 12.9375 7.5V6C12.9375 3.6375 12.27 2.0625 9 2.0625C5.73 2.0625 5.0625 3.6375 5.0625 6V7.5C5.0625 7.8075 4.8075 8.0625 4.5 8.0625C4.1925 8.0625 3.9375 7.8075 3.9375 7.5V6C3.9375 3.825 4.4625 0.9375 9 0.9375C13.5375 0.9375 14.0625 3.825 14.0625 6V7.5C14.0625 7.8075 13.8075 8.0625 13.5 8.0625Z" fill="white"/>
<path d="M12.75 17.0625H5.25C1.9425 17.0625 0.9375 16.0575 0.9375 12.75V11.25C0.9375 7.9425 1.9425 6.9375 5.25 6.9375H12.75C16.0575 6.9375 17.0625 7.9425 17.0625 11.25V12.75C17.0625 16.0575 16.0575 17.0625 12.75 17.0625ZM5.25 8.0625C2.565 8.0625 2.0625 8.5725 2.0625 11.25V12.75C2.0625 15.4275 2.565 15.9375 5.25 15.9375H12.75C15.435 15.9375 15.9375 15.4275 15.9375 12.75V11.25C15.9375 8.5725 15.435 8.0625 12.75 8.0625H5.25Z" fill="white"/>
<path d="M6 12.75C5.9025 12.75 5.805 12.7275 5.715 12.69C5.6175 12.6525 5.54251 12.6 5.46751 12.5325C5.33251 12.39 5.25 12.2025 5.25 12C5.25 11.9025 5.27249 11.805 5.30999 11.715C5.34749 11.6175 5.40001 11.5425 5.46751 11.4675C5.54251 11.4 5.6175 11.3475 5.715 11.31C5.985 11.19 6.32249 11.2575 6.53249 11.4675C6.59999 11.5425 6.65251 11.625 6.69001 11.715C6.72751 11.805 6.75 11.9025 6.75 12C6.75 12.195 6.66749 12.39 6.53249 12.5325C6.38999 12.6675 6.195 12.75 6 12.75Z" fill="white"/>
<path d="M9 12.7501C8.805 12.7501 8.61001 12.6676 8.46751 12.5326C8.33251 12.3901 8.25 12.2026 8.25 12.0001C8.25 11.9026 8.26499 11.8051 8.30999 11.7151C8.34749 11.6251 8.40001 11.5426 8.46751 11.4676C8.64001 11.2951 8.9025 11.2125 9.1425 11.265C9.195 11.2725 9.24 11.2875 9.285 11.31C9.33 11.325 9.375 11.3476 9.42 11.3776C9.4575 11.4001 9.49499 11.4376 9.53249 11.4676C9.59999 11.5426 9.65251 11.6251 9.69001 11.7151C9.72751 11.8051 9.75 11.9026 9.75 12.0001C9.75 12.2026 9.66749 12.3901 9.53249 12.5326C9.49499 12.5626 9.4575 12.5925 9.42 12.6225C9.375 12.6525 9.33 12.6751 9.285 12.6901C9.24 12.7126 9.195 12.7276 9.1425 12.7351C9.0975 12.7426 9.045 12.7501 9 12.7501Z" fill="white"/>
<path d="M12 12.7501C11.7975 12.7501 11.61 12.6676 11.4675 12.5326C11.4 12.4576 11.3475 12.3751 11.31 12.2851C11.2725 12.1951 11.25 12.0976 11.25 12.0001C11.25 11.8051 11.3325 11.6101 11.4675 11.4676C11.505 11.4376 11.5425 11.4076 11.58 11.3776C11.625 11.3476 11.67 11.325 11.715 11.31C11.76 11.2875 11.805 11.2725 11.85 11.265C12.0975 11.2125 12.3525 11.2951 12.5325 11.4676C12.6675 11.6101 12.75 11.7976 12.75 12.0001C12.75 12.0976 12.7275 12.1951 12.69 12.2851C12.6525 12.3826 12.6 12.4576 12.5325 12.5326C12.39 12.6676 12.195 12.7501 12 12.7501Z" fill="white"/>
</svg>
