<svg width="18" height="18" viewBox="0 0 18 18" fill="none" xmlns="http://www.w3.org/2000/svg">
<path d="M14.8306 7.36751V7.3675H14.8275H11.7975C11.2385 7.3675 10.975 7.26461 10.8454 7.14995C10.7316 7.04921 10.625 6.85169 10.625 6.3825V2.985C10.625 2.5206 10.7311 2.32193 10.8462 2.21971C10.9763 2.10411 11.2403 2 11.7975 2H14.8275C15.3847 2 15.6487 2.10411 15.7788 2.21971C15.8939 2.32193 16 2.5206 16 2.985V6.39C16 6.85477 15.8937 7.05268 15.7796 7.1537C15.6505 7.26789 15.3876 7.37101 14.8306 7.36751Z" stroke="white"/>
<path d="M16 11.7975V14.8275C16 15.3737 15.8871 15.6276 15.7574 15.7574C15.6276 15.8871 15.3737 16 14.8275 16H11.7975C11.2513 16 10.9974 15.8871 10.8676 15.7574C10.7379 15.6276 10.625 15.3737 10.625 14.8275V11.7975C10.625 11.2513 10.7379 10.9974 10.8676 10.8676C10.9974 10.7379 11.2513 10.625 11.7975 10.625H14.8275C15.3737 10.625 15.6276 10.7379 15.7574 10.8676C15.8871 10.9974 16 11.2513 16 11.7975Z" stroke="white"/>
<path d="M6.20565 7.36751V7.3675H6.2025H3.1725C2.6135 7.3675 2.34998 7.26461 2.22043 7.14995C2.10661 7.04921 2 6.85169 2 6.3825V2.985C2 2.5206 2.10613 2.32193 2.22116 2.21971C2.35128 2.10411 2.61528 2 3.1725 2H6.2025C6.75972 2 7.02372 2.10411 7.15384 2.21971C7.26887 2.32193 7.375 2.5206 7.375 2.985V6.39C7.375 6.85477 7.26871 7.05268 7.15457 7.1537C7.02554 7.26789 6.76259 7.37101 6.20565 7.36751Z" stroke="white"/>
<path d="M7.375 11.7975V14.8275C7.375 15.3737 7.26213 15.6276 7.13238 15.7574C7.00264 15.8871 6.74867 16 6.2025 16H3.1725C2.62633 16 2.37236 15.8871 2.24262 15.7574C2.11287 15.6276 2 15.3737 2 14.8275V11.7975C2 11.2513 2.11287 10.9974 2.24262 10.8676C2.37236 10.7379 2.62633 10.625 3.1725 10.625H6.2025C6.74867 10.625 7.00264 10.7379 7.13238 10.8676C7.26213 10.9974 7.375 11.2513 7.375 11.7975Z" stroke="white"/>
</svg>
