<svg xmlns="http://www.w3.org/2000/svg" version="1.1" xmlns:xlink="http://www.w3.org/1999/xlink" xmlns:svgjs="http://svgjs.com/svgjs" width="26" height="26" x="0" y="0" viewBox="0 0 48 48" style="enable-background:new 0 0 512 512" xml:space="preserve" class=""><g><path d="M19.356 13.72c1.578-.515 3.14-.776 4.644-.776 8.531 0 16.04 8.296 18.303 11.057a41.695 41.695 0 0 1-4.247 4.46 1.501 1.501 0 0 0 2.012 2.226c3.273-2.959 5.271-5.692 5.355-5.807a1.5 1.5 0 0 0 0-1.763C45.032 22.581 35.72 9.944 24 9.944c-1.82 0-3.695.311-5.574.924a1.498 1.498 0 0 0-.96 1.891 1.497 1.497 0 0 0 1.89.961zM4.777 4a1.5 1.5 0 0 0-1.971 2.262l9.087 7.919c-5.52 3.772-9.151 8.712-9.315 8.938a1.503 1.503 0 0 0 0 1.763c.39.537 9.702 13.174 21.422 13.174 3.62 0 7.366-1.225 11.145-3.612l8.078 7.04a1.496 1.496 0 0 0 2.116-.146 1.5 1.5 0 0 0-.146-2.116zm15.252 17.27 6.732 5.867a4.58 4.58 0 0 1-2.761.938 4.581 4.581 0 0 1-4.575-4.575c0-.8.223-1.555.604-2.23zM24 35.056c-8.531 0-16.039-8.295-18.302-11.057 1.326-1.621 4.467-5.135 8.548-7.768l3.476 3.03a7.504 7.504 0 0 0-1.298 4.239c0 4.177 3.398 7.575 7.575 7.575 1.879 0 3.674-.71 5.051-1.942l3.727 3.248c-3.022 1.771-5.969 2.675-8.777 2.675z" fill="#ffffff" data-original="#ffffff" class=""></path></g></svg>