<svg width="26" height="18" viewBox="0 0 26 18" fill="none" xmlns="http://www.w3.org/2000/svg">
<path fill-rule="evenodd" clip-rule="evenodd" d="M25.3612 9.13914C25.3612 9.13914 20.6576 0.515625 12.8178 0.515625C4.97804 0.515625 0.274414 9.13914 0.274414 9.13914C0.274414 9.13914 4.97804 17.7627 12.8178 17.7627C20.6576 17.7627 25.3612 9.13914 25.3612 9.13914ZM2.11355 9.13914C2.87167 10.2908 3.74352 11.3634 4.71599 12.3408C6.73424 14.3615 9.49355 16.1928 12.8178 16.1928C16.1421 16.1928 18.9002 14.3615 20.9208 12.3408C21.8936 11.3629 22.7657 10.2896 23.5239 9.13734C22.7657 7.98502 21.8936 6.91181 20.9208 5.93387C18.8996 3.91503 16.1415 2.0837 12.8178 2.0837C9.49415 2.0837 6.73544 3.91503 4.71479 5.93567C3.742 6.91361 2.86994 7.98683 2.11175 9.13914H2.11355Z" fill="white"/>
<path fill-rule="evenodd" clip-rule="evenodd" d="M12.8176 5.21859C12.0423 5.21859 11.2844 5.44849 10.6398 5.87921C9.99516 6.30993 9.49274 6.92214 9.19605 7.6384C8.89936 8.35467 8.82174 9.14283 8.97299 9.90321C9.12424 10.6636 9.49757 11.3621 10.0458 11.9103C10.594 12.4585 11.2924 12.8318 12.0528 12.983C12.8132 13.1343 13.6014 13.0567 14.3176 12.76C15.0339 12.4633 15.6461 11.9609 16.0768 11.3163C16.5075 10.6716 16.7374 9.91376 16.7374 9.13848C16.7374 8.09886 16.3245 7.10182 15.5893 6.3667C14.8542 5.63158 13.8572 5.21859 12.8176 5.21859ZM7.32959 9.13848C7.32959 8.05306 7.65145 6.99202 8.25448 6.08953C8.8575 5.18704 9.71461 4.48363 10.7174 4.06826C11.7202 3.65289 12.8236 3.54421 13.8882 3.75596C14.9528 3.96772 15.9306 4.4904 16.6981 5.2579C17.4656 6.02541 17.9883 7.00327 18.2001 8.06783C18.4118 9.13239 18.3031 10.2358 17.8878 11.2386C17.4724 12.2414 16.769 13.0985 15.8665 13.7016C14.964 14.3046 13.903 14.6264 12.8176 14.6264C11.3621 14.6264 9.96617 14.0482 8.93698 13.0191C7.90778 11.9899 7.32959 10.594 7.32959 9.13848Z" fill="white"/>
</svg>
