<svg width="32" height="32" viewBox="0 0 32 32" fill="none" xmlns="http://www.w3.org/2000/svg">
<path d="M17.4299 23.7025H17.3324C14.0024 23.7025 12.3974 22.39 12.1199 19.45C12.0899 19.1425 12.3149 18.865 12.6299 18.835C12.9299 18.805 13.2149 19.0375 13.2449 19.345C13.4624 21.7 14.5724 22.5775 17.3399 22.5775H17.4374C20.4899 22.5775 21.5699 21.4975 21.5699 18.445V13.555C21.5699 10.5025 20.4899 9.42249 17.4374 9.42249H17.3399C14.5574 9.42249 13.4474 10.315 13.2449 12.715C13.2074 13.0225 12.9449 13.255 12.6299 13.225C12.3149 13.2025 12.0899 12.925 12.1124 12.6175C12.3674 9.63249 13.9799 8.29749 17.3324 8.29749H17.4299C21.1124 8.29749 22.6874 9.87249 22.6874 13.555V18.445C22.6874 22.1275 21.1124 23.7025 17.4299 23.7025Z" fill="white"/>
<path d="M17.2501 16.5625H8.71509C8.40759 16.5625 8.15259 16.3075 8.15259 16C8.15259 15.6925 8.40759 15.4375 8.71509 15.4375H17.2501C17.5576 15.4375 17.8126 15.6925 17.8126 16C17.8126 16.3075 17.5576 16.5625 17.2501 16.5625Z" fill="white"/>
<path d="M10.3876 19.075C10.2451 19.075 10.1026 19.0225 9.99008 18.91L7.47758 16.3975C7.26008 16.18 7.26008 15.82 7.47758 15.6025L9.99008 13.09C10.2076 12.8725 10.5676 12.8725 10.7851 13.09C11.0026 13.3075 11.0026 13.6675 10.7851 13.885L8.67008 16L10.7851 18.115C11.0026 18.3325 11.0026 18.6925 10.7851 18.91C10.6801 19.0225 10.5301 19.075 10.3876 19.075Z" fill="white"/>
</svg>
