<svg width="38" height="38" viewBox="0 0 38 38" fill="none" xmlns="http://www.w3.org/2000/svg">
<path d="M28.4997 12.5242C28.4522 12.5242 28.4205 12.5242 28.373 12.5242H28.2938C25.3013 12.4292 23.0688 10.1175 23.0688 7.2675C23.0688 4.35416 25.4439 1.995 28.3414 1.995C31.2389 1.995 33.6139 4.37 33.6139 7.2675C33.598 10.1333 31.3655 12.445 28.5155 12.54C28.5155 12.5242 28.5155 12.5242 28.4997 12.5242ZM28.3414 4.35417C26.7422 4.35417 25.4438 5.65251 25.4438 7.25167C25.4438 8.81917 26.663 10.0858 28.2305 10.1492C28.2464 10.1333 28.373 10.1333 28.5155 10.1492C30.0513 10.07 31.2389 8.80334 31.2547 7.25167C31.2547 5.65251 29.9564 4.35417 28.3414 4.35417Z" fill="white"/>
<path d="M28.5159 24.1934C27.8984 24.1934 27.2809 24.1459 26.6634 24.035C26.0142 23.9242 25.5867 23.3067 25.6975 22.6575C25.8084 22.0084 26.4259 21.5809 27.075 21.6917C29.0225 22.0242 31.0809 21.66 32.4584 20.7417C33.2025 20.2509 33.5984 19.6334 33.5984 19.0159C33.5984 18.3984 33.1867 17.7967 32.4584 17.3059C31.0809 16.3875 28.9909 16.0234 27.0275 16.3717C26.3784 16.4984 25.7609 16.055 25.65 15.4059C25.5392 14.7567 25.9667 14.1392 26.6159 14.0284C29.1967 13.5692 31.8725 14.06 33.7725 15.3267C35.1659 16.2609 35.9734 17.5909 35.9734 19.0159C35.9734 20.425 35.1817 21.7709 33.7725 22.7209C32.3317 23.6709 30.4634 24.1934 28.5159 24.1934Z" fill="white"/>
<path d="M9.45251 12.5241C9.43668 12.5241 9.42085 12.5241 9.42085 12.5241C6.57085 12.4291 4.33834 10.1175 4.32251 7.26745C4.32251 4.35412 6.69751 1.97913 9.59501 1.97913C12.4925 1.97913 14.8675 4.35413 14.8675 7.25163C14.8675 10.1175 12.635 12.4291 9.78501 12.5241L9.45251 11.3366L9.56335 12.5241C9.53168 12.5241 9.48418 12.5241 9.45251 12.5241ZM9.61084 10.1491C9.70584 10.1491 9.78501 10.1491 9.88001 10.165C11.2892 10.1016 12.5242 8.83495 12.5242 7.26745C12.5242 5.66829 11.2258 4.36995 9.62668 4.36995C8.02751 4.36995 6.72918 5.66829 6.72918 7.26745C6.72918 8.81912 7.93251 10.07 9.46834 10.165C9.48418 10.1491 9.54751 10.1491 9.61084 10.1491Z" fill="white"/>
<path d="M9.43675 24.1934C7.48925 24.1934 5.62091 23.6709 4.18008 22.7209C2.78675 21.7867 1.97925 20.4409 1.97925 19.0159C1.97925 17.6067 2.78675 16.2609 4.18008 15.3267C6.08008 14.06 8.75591 13.5692 11.3367 14.0284C11.9859 14.1392 12.4134 14.7567 12.3026 15.4059C12.1917 16.055 11.5743 16.4984 10.9251 16.3717C8.96175 16.0234 6.88758 16.3875 5.49425 17.3059C4.75008 17.7967 4.35425 18.3984 4.35425 19.0159C4.35425 19.6334 4.76592 20.2509 5.49425 20.7417C6.87175 21.66 8.93008 22.0242 10.8776 21.6917C11.5267 21.5809 12.1443 22.0242 12.2551 22.6575C12.3659 23.3067 11.9384 23.9242 11.2893 24.035C10.6718 24.1459 10.0542 24.1934 9.43675 24.1934Z" fill="white"/>
<path d="M18.9997 24.3517C18.9522 24.3517 18.9205 24.3517 18.873 24.3517H18.7938C15.8013 24.2567 13.5688 21.945 13.5688 19.095C13.5688 16.1817 15.9439 13.8225 18.8414 13.8225C21.7389 13.8225 24.1138 16.1975 24.1138 19.095C24.098 21.9608 21.8655 24.2725 19.0155 24.3675C19.0155 24.3517 19.0155 24.3517 18.9997 24.3517ZM18.8414 16.1817C17.2422 16.1817 15.9438 17.48 15.9438 19.0792C15.9438 20.6467 17.163 21.9134 18.7305 21.9767C18.7464 21.9609 18.873 21.9609 19.0155 21.9767C20.5513 21.8975 21.7389 20.6309 21.7547 19.0792C21.7547 17.4959 20.4564 16.1817 18.8414 16.1817Z" fill="white"/>
<path d="M18.9997 36.0366C17.0997 36.0366 15.1997 35.5458 13.7272 34.5483C12.3339 33.6142 11.5264 32.2842 11.5264 30.8592C11.5264 29.45 12.318 28.0883 13.7272 27.1541C16.688 25.1908 21.3272 25.1908 24.2722 27.1541C25.6655 28.0883 26.473 29.4183 26.473 30.8433C26.473 32.2525 25.6814 33.6142 24.2722 34.5483C22.7997 35.53 20.8997 36.0366 18.9997 36.0366ZM15.0414 29.1492C14.2972 29.64 13.9014 30.2575 13.9014 30.875C13.9014 31.4925 14.313 32.0942 15.0414 32.585C17.1789 34.0258 20.8047 34.0258 22.9422 32.585C23.6864 32.0942 24.0822 31.4767 24.0822 30.8592C24.0822 30.2417 23.6705 29.64 22.9422 29.1492C20.8205 27.7083 17.1947 27.7242 15.0414 29.1492Z" fill="white"/>
</svg>
